<svg width="12" height="12" viewBox="0 0 12 12" fill="none" xmlns="http://www.w3.org/2000/svg">
<g clip-path="url(#clip0_88_178)">
<path d="M7.32178 4.67731C7.17964 4.53432 7.02203 4.40757 6.85188 4.29938C6.40121 4.0108 5.87729 3.85745 5.34214 3.85745C4.59938 3.85607 3.88679 4.15119 3.3625 4.67731L0.818953 7.22284C0.295547 7.74725 0.0013657 8.45777 0.000897033 9.19869C-8.71647e-05 10.7448 1.25247 11.999 2.7986 12C3.54021 12.0025 4.25214 11.7088 4.77625 11.1841L6.87587 9.0845C6.91402 9.04667 6.93532 8.99507 6.93502 8.94137C6.93439 8.83092 6.84433 8.74193 6.73389 8.74256H6.65391C6.21524 8.7441 5.78048 8.65986 5.37415 8.49461C5.29928 8.4638 5.21323 8.48118 5.1562 8.5386L3.64646 10.0503C3.17765 10.5191 2.41757 10.5191 1.94877 10.0503C1.47996 9.58152 1.47996 8.82143 1.94877 8.35263L4.50231 5.8011C4.97075 5.33325 5.72959 5.33325 6.19802 5.8011C6.51371 6.09821 7.00614 6.09821 7.32181 5.8011C7.45763 5.66516 7.53997 5.48487 7.55377 5.29318C7.56837 5.06412 7.4839 4.8398 7.32178 4.67731Z" fill="black"/>
<path d="M11.1791 0.820003C10.0858 -0.273324 8.31314 -0.273324 7.21982 0.820003L5.12218 2.91562C5.06458 2.9735 5.04797 3.06055 5.08019 3.13559C5.11204 3.21083 5.18646 3.25913 5.26815 3.25756H5.34213C5.78028 3.25676 6.21434 3.34166 6.6199 3.50752C6.69477 3.53833 6.78082 3.52095 6.83785 3.46354L8.34358 1.9598C8.81239 1.49099 9.57247 1.49099 10.0413 1.9598C10.5101 2.4286 10.5101 3.18869 10.0413 3.65749L8.16561 5.53115L8.1496 5.54915L7.49373 6.20104C7.0253 6.66888 6.26645 6.66888 5.79802 6.20104C5.48233 5.90393 4.9899 5.90393 4.67423 6.20104C4.53755 6.338 4.45513 6.51987 4.44227 6.71294C4.42764 6.942 4.51212 7.16632 4.67423 7.32883C4.90568 7.56127 5.17648 7.75082 5.47408 7.88872C5.51607 7.90871 5.55807 7.92472 5.60006 7.94272C5.64205 7.96071 5.68604 7.9747 5.72803 7.99071C5.77002 8.00671 5.814 8.0207 5.856 8.0327L5.97398 8.06468C6.05396 8.08467 6.13396 8.10068 6.21593 8.11467C6.31468 8.12934 6.41413 8.13869 6.51389 8.14267H6.65385H6.66585L6.78583 8.12868C6.82981 8.12669 6.87581 8.11668 6.92781 8.11668H6.99579L7.13377 8.09669L7.19776 8.0847L7.31374 8.0607H7.33574C7.82692 7.93733 8.27544 7.683 8.6335 7.32483L11.179 4.77929C12.2724 3.68596 12.2724 1.91333 11.1791 0.820003Z" fill="black"/>
</g>
<defs>
<clipPath id="clip0_88_178">
<rect width="12" height="12" fill="white"/>
</clipPath>
</defs>
</svg>
