<svg width="13" height="13" viewBox="0 0 13 13" fill="none" xmlns="http://www.w3.org/2000/svg">
<path d="M8.70765 0H4.31588C3.56923 0 2.93483 0.608796 2.93483 1.35523V11.6463C2.93483 12.3928 3.55581 13 4.30245 13L8.70146 12.9953C9.448 12.9953 10.0588 12.3879 10.0588 11.6414L10.0652 1.35451C10.0651 0.605388 9.45729 0 8.70765 0ZM5.87731 0.812519H7.15148C7.26341 0.812519 7.35459 0.903384 7.35459 1.01562C7.35459 1.12786 7.26341 1.21873 7.15148 1.21873H5.87731C5.76507 1.21873 5.6742 1.12786 5.6742 1.01562C5.6742 0.903384 5.76507 0.812519 5.87731 0.812519ZM5.11167 0.877157C5.18694 0.801987 5.32396 0.800955 5.39913 0.877157C5.43682 0.914743 5.45912 0.967506 5.45912 1.02141C5.45912 1.07427 5.43682 1.12693 5.39913 1.16462C5.36165 1.20231 5.30868 1.22451 5.25592 1.22451C5.20212 1.22451 5.15039 1.20231 5.11167 1.16462C5.07419 1.12704 5.05281 1.07427 5.05281 1.02141C5.05271 0.967506 5.07419 0.914743 5.11167 0.877157ZM6.4734 12.5974C6.13824 12.5974 5.86564 12.3246 5.86564 11.9895C5.86564 11.6544 6.13824 11.3817 6.4734 11.3817C6.80857 11.3817 7.08117 11.6544 7.08117 11.9895C7.08117 12.3246 6.80847 12.5974 6.4734 12.5974ZM9.43468 10.9685H3.64575V1.92975H9.43468V10.9685Z" fill="black"/>
</svg>
